<?xml version="1.0" encoding="utf-8"?>
<!-- Generator: Adobe Illustrator 16.0.0, SVG Export Plug-In . SVG Version: 6.00 Build 0)  -->
<!DOCTYPE svg PUBLIC "-//W3C//DTD SVG 1.1//EN" "http://www.w3.org/Graphics/SVG/1.1/DTD/svg11.dtd">
<svg version="1.1" id="Layer_1" xmlns="http://www.w3.org/2000/svg" xmlns:xlink="http://www.w3.org/1999/xlink" x="0px" y="0px"
	 width="1000px" height="692.966px" viewBox="0 177.106 1000 692.966" enable-background="new 0 177.106 1000 692.966"
	 xml:space="preserve">
<g>
	<path stroke="#000000" stroke-width="0.9855" stroke-miterlimit="10" d="M20.319,547.652l303.536,307.479
		c11.826,11.826,31.536,11.826,43.362,0l0,0c11.826-11.826,11.826-31.537,0-43.363L118.87,555.536h843.595
		C982.174,555.536,994,543.71,994,524s-11.826-31.536-31.535-31.536H110.986l252.289-256.232c11.826-11.825,11.826-31.536,0-43.362
		c-11.826-11.825-31.536-11.825-43.362,0l0,0L12.436,500.348C4.551,516.116,4.551,535.826,20.319,547.652z"/>
</g>
</svg>
