<?xml version="1.0" encoding="utf-8"?>
<!-- Generator: Adobe Illustrator 16.0.0, SVG Export Plug-In . SVG Version: 6.00 Build 0)  -->
<!DOCTYPE svg PUBLIC "-//W3C//DTD SVG 1.1//EN" "http://www.w3.org/Graphics/SVG/1.1/DTD/svg11.dtd">
<svg version="1.1" id="Layer_1" xmlns="http://www.w3.org/2000/svg" xmlns:xlink="http://www.w3.org/1999/xlink" x="0px" y="0px"
	 width="1000px" height="692.966px" viewBox="0 177.106 1000 692.966" enable-background="new 0 177.106 1000 692.966"
	 xml:space="preserve">
<g>
	<path stroke="#000000" stroke-width="0.9855" stroke-miterlimit="10" d="M980.937,500.348L677.4,192.87
		c-11.826-11.826-31.536-11.826-43.362,0l0,0c-11.826,11.826-11.826,31.536,0,43.362l248.348,256.232H38.792
		c-19.71,0-31.536,11.826-31.536,31.536s11.826,31.536,31.536,31.536H890.27L637.98,811.769c-11.826,11.825-11.826,31.536,0,43.362
		c11.826,11.825,31.536,11.825,43.362,0l0,0L988.82,547.652C996.705,531.884,996.705,512.174,980.937,500.348z"/>
</g>
</svg>
