<?xml version="1.0" encoding="utf-8"?>
<!-- Generator: Adobe Illustrator 16.0.0, SVG Export Plug-In . SVG Version: 6.00 Build 0)  -->
<!DOCTYPE svg PUBLIC "-//W3C//DTD SVG 1.1//EN" "http://www.w3.org/Graphics/SVG/1.1/DTD/svg11.dtd">
<svg version="1.1" id="Layer_1" xmlns="http://www.w3.org/2000/svg" xmlns:xlink="http://www.w3.org/1999/xlink" x="0px" y="0px"
	 width="701.965px" height="698.965px" viewBox="102.11 99.111 701.965 698.965"
	 enable-background="new 102.11 99.111 701.965 698.965" xml:space="preserve">
<path fill="#3D5956" d="M696.902,106.301H210.338c-55.581,0-100.808,45.227-100.808,100.808v486.563
	c0,55.581,45.227,100.808,100.808,100.808h202.958V551.198h-80.646v-120.97h80.646v-81.989c0-66.707,54.263-120.97,120.97-120.97
	h122.312v120.97H534.267v81.989h122.312l-20.16,120.97H534.267v243.281h162.636c55.581,0,100.807-45.227,100.807-100.808V207.108
	C797.709,151.528,752.483,106.301,696.902,106.301z"/>
<rect x="639.083" y="430.594" fill="#3D5956" width="28.499" height="148.493"/>
<rect x="642.083" y="496.591" fill="#3D5956" width="9" height="1.5"/>
<rect x="631.584" y="420.095" fill="#3D5956" width="25.498" height="143.993"/>
</svg>
