<?xml version="1.0" encoding="utf-8"?>
<!-- Generator: Adobe Illustrator 16.0.0, SVG Export Plug-In . SVG Version: 6.00 Build 0)  -->
<!DOCTYPE svg PUBLIC "-//W3C//DTD SVG 1.1//EN" "http://www.w3.org/Graphics/SVG/1.1/DTD/svg11.dtd">
<svg version="1.1" id="Layer_1" xmlns="http://www.w3.org/2000/svg" xmlns:xlink="http://www.w3.org/1999/xlink" x="0px" y="0px"
	 width="107.123px" height="88.897px" viewBox="0 -10.103 107.123 88.897" enable-background="new 0 -10.103 107.123 88.897"
	 xml:space="preserve">
<path fill="#365A56" d="M101.753,74.361H4.507V-4.434h97.246V74.361z M5.564,73.304h95.132V-3.381H5.564V73.304z"/>
<polygon fill="#365A56" points="87.85,18.042 87.85,37.925 57.577,37.925 90.487,5.183 86.003,5.183 53.641,37.378 53.123,37.897 
	20.247,5.183 15.761,5.183 48.674,37.925 18.362,37.925 18.362,18.086 15.198,18.086 15.198,62.462 18.362,62.462 18.362,41.087 
	51.576,41.087 51.576,62.479 54.737,62.479 54.737,41.087 87.85,41.087 87.85,62.479 91.011,62.479 91.011,18.042 "/>
</svg>
