<?xml version="1.0" encoding="utf-8"?>
<!-- Generator: Adobe Illustrator 16.0.0, SVG Export Plug-In . SVG Version: 6.00 Build 0)  -->
<!DOCTYPE svg PUBLIC "-//W3C//DTD SVG 1.1//EN" "http://www.w3.org/Graphics/SVG/1.1/DTD/svg11.dtd">
<svg version="1.1" id="Capa_1" xmlns="http://www.w3.org/2000/svg" xmlns:xlink="http://www.w3.org/1999/xlink" x="0px" y="0px"
	 width="123px" height="120px" viewBox="0 27 123 120" enable-background="new 0 27 123 120" xml:space="preserve">
<path fill="#365A56" d="M112.484,67.047c-0.257-5.792-1.192-9.772-2.534-13.223c-1.384-3.661-3.515-6.941-6.303-9.667
	C100.921,41.39,97.62,39.24,94,37.876c-3.468-1.342-7.429-2.277-13.221-2.533c-5.835-0.277-7.687-0.341-22.486-0.341
	c-14.798,0-16.65,0.064-22.464,0.319c-5.792,0.255-9.773,1.193-13.223,2.533c-3.663,1.386-6.941,3.515-9.667,6.304
	c-2.769,2.726-4.917,6.025-6.281,9.646c-1.342,3.471-2.279,7.431-2.534,13.222c-0.277,5.835-0.341,7.687-0.341,22.485
	c0,14.8,0.064,16.651,0.319,22.466c0.256,5.79,1.193,9.773,2.534,13.223c1.385,3.661,3.534,6.941,6.303,9.666
	c2.726,2.768,6.026,4.919,9.646,6.283c3.47,1.342,7.431,2.277,13.223,2.532c5.812,0.257,7.666,0.319,22.463,0.319
	c14.799,0,16.653-0.062,22.465-0.319c5.793-0.255,9.773-1.19,13.223-2.532c7.325-2.834,13.115-8.625,15.949-15.949
	c1.34-3.471,2.277-7.433,2.532-13.223c0.257-5.814,0.321-7.666,0.321-22.466C112.762,74.713,112.738,72.861,112.484,67.047z
	 M102.668,111.551c-0.233,5.322-1.129,8.196-1.874,10.113c-1.832,4.748-5.601,8.517-10.349,10.35
	c-1.916,0.743-4.812,1.639-10.114,1.872c-5.748,0.257-7.474,0.319-22.016,0.319c-14.544,0-16.29-0.062-22.018-0.319
	c-5.323-0.233-8.198-1.129-10.114-1.872c-2.363-0.873-4.514-2.259-6.26-4.069c-1.81-1.766-3.193-3.895-4.067-6.259
	c-0.745-1.916-1.64-4.812-1.873-10.114c-0.257-5.748-0.319-7.474-0.319-22.017c0-14.544,0.062-16.289,0.319-22.018
	c0.233-5.322,1.128-8.198,1.873-10.114c0.874-2.364,2.257-4.513,4.089-6.26c1.766-1.81,3.895-3.195,6.26-4.067
	c1.916-0.745,4.812-1.639,10.114-1.874c5.749-0.255,7.475-0.319,22.016-0.319c14.564,0,16.29,0.064,22.019,0.319
	c5.324,0.235,8.198,1.129,10.114,1.874c2.362,0.872,4.513,2.257,6.259,4.067c1.81,1.768,3.193,3.896,4.067,6.26
	c0.745,1.916,1.641,4.812,1.874,10.114c0.257,5.75,0.319,7.474,0.319,22.018C102.987,104.098,102.925,105.801,102.668,111.551z"/>
<path fill="#365A56" d="M58.293,61.512c-15.458,0-28,12.541-28,27.999c0,15.461,12.542,28.001,28,28.001s28.001-12.54,28.001-28.001
	C86.294,74.053,73.751,61.512,58.293,61.512z M58.293,107.675c-10.028,0-18.163-8.134-18.163-18.164
	c0-10.028,8.135-18.161,18.163-18.161c10.029,0,18.164,8.133,18.164,18.161C76.457,99.541,68.322,107.675,58.293,107.675z"/>
<path fill="#365A56" d="M93.939,60.404c0,3.611-2.928,6.537-6.539,6.537c-3.609,0-6.537-2.926-6.537-6.537
	c0-3.609,2.928-6.536,6.537-6.536C91.012,53.868,93.939,56.795,93.939,60.404z"/>
</svg>
