<?xml version="1.0" encoding="utf-8"?>
<!-- Generator: Adobe Illustrator 16.0.0, SVG Export Plug-In . SVG Version: 6.00 Build 0)  -->
<!DOCTYPE svg PUBLIC "-//W3C//DTD SVG 1.1//EN" "http://www.w3.org/Graphics/SVG/1.1/DTD/svg11.dtd">
<svg version="1.1" id="Layer_1" xmlns="http://www.w3.org/2000/svg" xmlns:xlink="http://www.w3.org/1999/xlink" x="0px" y="0px"
	 width="701.965px" height="698.965px" viewBox="102.11 99.111 701.965 698.965"
	 enable-background="new 102.11 99.111 701.965 698.965" xml:space="preserve">
<g>
	<g>
		<path fill="#3D5956" d="M595.122,104.602H308.078c-109.722,0-198.986,89.266-198.986,198.986v287.044
			c0,109.721,89.265,198.988,198.986,198.988h287.044c109.721,0,198.985-89.268,198.985-198.986V303.588
			C794.107,193.868,704.843,104.602,595.122,104.602z M740.592,590.633c0,80.213-65.258,145.471-145.47,145.471H308.078
			c-80.212,0-145.469-65.258-145.469-145.469V303.588c0-80.212,65.257-145.469,145.469-145.469h287.044
			c80.212,0,145.47,65.257,145.47,145.469V590.633z"/>
	</g>
</g>
<g>
	<g>
		<path fill="#3D5956" d="M451.601,262.477c-101.809,0-184.634,82.825-184.634,184.633c0,101.808,82.825,184.634,184.634,184.634
			c101.807,0,184.633-82.826,184.633-184.634C636.233,345.302,553.407,262.477,451.601,262.477z M451.601,578.229
			c-72.298,0-131.117-58.818-131.117-131.119c0-72.297,58.819-131.116,131.117-131.116c72.297,0,131.116,58.819,131.116,131.116
			C582.717,519.41,523.897,578.229,451.601,578.229z"/>
	</g>
</g>
<g>
	<g>
		<circle fill="#3D5956" cx="638.909" cy="259.801" r="26.759"/>
	</g>
</g>
</svg>
