<?xml version="1.0" encoding="utf-8"?>
<!-- Generator: Adobe Illustrator 16.0.0, SVG Export Plug-In . SVG Version: 6.00 Build 0)  -->
<!DOCTYPE svg PUBLIC "-//W3C//DTD SVG 1.1//EN" "http://www.w3.org/Graphics/SVG/1.1/DTD/svg11.dtd">
<svg version="1.1" id="Layer_1" xmlns="http://www.w3.org/2000/svg" xmlns:xlink="http://www.w3.org/1999/xlink" x="0px" y="0px"
	 width="701.965px" height="698.965px" viewBox="102.11 99.111 701.965 698.965"
	 enable-background="new 102.11 99.111 701.965 698.965" xml:space="preserve">
<g>
	<g>
		<path fill="#3D5956" d="M620.715,112.983H285.67c-92.831,0-168.589,75.759-168.589,168.589V617.15
			c0,92.297,75.758,168.056,168.589,168.056h335.578c92.83,0,168.59-75.759,168.59-168.589V281.573
			C789.305,188.742,713.546,112.983,620.715,112.983z M341.155,657.163h-96.032V379.738h96.032V657.163z M292.606,337.057
			c-27.209,0-49.083-21.874-49.083-49.083s21.874-49.083,49.083-49.083s49.083,21.874,49.083,49.083
			C341.155,315.184,319.281,337.057,292.606,337.057z M661.795,657.163h-0.535h-80.025V522.719c0-32.544-4.268-74.157-48.55-74.157
			c-45.348,0-52.816,35.212-52.816,72.022v136.579h-80.026V379.738h74.69v37.346h2.134c11.738-21.34,38.947-37.879,81.627-37.879
			c88.03,0,103.501,50.684,103.501,125.909V657.163L661.795,657.163z"/>
	</g>
</g>
</svg>
