<?xml version="1.0" encoding="utf-8"?>
<!-- Generator: Adobe Illustrator 16.0.0, SVG Export Plug-In . SVG Version: 6.00 Build 0)  -->
<!DOCTYPE svg PUBLIC "-//W3C//DTD SVG 1.1//EN" "http://www.w3.org/Graphics/SVG/1.1/DTD/svg11.dtd">
<svg version="1.1" xmlns="http://www.w3.org/2000/svg" xmlns:xlink="http://www.w3.org/1999/xlink" x="0px" y="0px" width="512px"
	 height="531px" viewBox="0 -6.5 512 531" enable-background="new 0 -6.5 512 531" xml:space="preserve">
<g id="Layer_2">
	<rect x="53" y="191.5" width="65" height="320"/>
	<rect x="382" y="191.5" width="65" height="320"/>
</g>
<g id="bold">
	<path d="M395.5,192h-16v-64c0-70.592-57.408-128-128-128s-128,57.408-128,128v64h-16c-26.453,0-48,21.525-48,48v224
		c0,26.475,21.547,48,48,48h288c26.453,0,48-21.525,48-48V240C443.5,213.525,421.953,192,395.5,192z M166.167,128
		c0-47.062,38.272-85.333,85.333-85.333S336.833,80.938,336.833,128v64H166.167V128z M272.834,356.736v48.597
		c0,11.776-9.537,21.334-21.334,21.334c-11.797,0-21.333-9.558-21.333-21.334v-48.597c-12.693-7.402-21.333-21.014-21.333-36.736
		c0-23.531,19.136-42.666,42.667-42.666c23.531,0,42.666,19.135,42.666,42.666C294.166,335.723,285.527,349.334,272.834,356.736z"/>
</g>
</svg>
