<?xml version="1.0" encoding="utf-8"?>
<!-- Generator: Adobe Illustrator 16.0.0, SVG Export Plug-In . SVG Version: 6.00 Build 0)  -->
<!DOCTYPE svg PUBLIC "-//W3C//DTD SVG 1.1//EN" "http://www.w3.org/Graphics/SVG/1.1/DTD/svg11.dtd">
<svg version="1.1" id="Capa_1" xmlns="http://www.w3.org/2000/svg" xmlns:xlink="http://www.w3.org/1999/xlink" x="0px" y="0px"
	 width="123px" height="147px" viewBox="0 0 123 147" enable-background="new 0 0 123 147" xml:space="preserve">
<path fill="#365A56" d="M16.293,125.87l26.645-25.618c7.83,6.587,17.682,10.196,27.938,10.196c23.962,0,43.457-19.496,43.457-43.458
	c0-23.963-19.495-43.458-43.457-43.458c-23.963,0-43.459,19.495-43.459,43.458c0,8.996,2.714,17.566,7.865,24.896L8.436,117.699
	c-1.121,1.079-1.738,2.531-1.738,4.086c0,1.472,0.562,2.868,1.582,3.928C10.445,127.966,14.04,128.037,16.293,125.87z
	 M101.995,66.99c0,17.712-14.409,32.12-32.12,32.12c-17.712,0-32.121-14.408-32.121-32.12s14.409-32.121,32.121-32.121
	C87.586,34.869,101.995,49.278,101.995,66.99z"/>
</svg>
