<?xml version="1.0" encoding="utf-8"?>
<!-- Generator: Adobe Illustrator 16.0.0, SVG Export Plug-In . SVG Version: 6.00 Build 0)  -->
<!DOCTYPE svg PUBLIC "-//W3C//DTD SVG 1.1//EN" "http://www.w3.org/Graphics/SVG/1.1/DTD/svg11.dtd">
<svg version="1.1" id="Layer_1" xmlns="http://www.w3.org/2000/svg" xmlns:xlink="http://www.w3.org/1999/xlink" x="0px" y="0px"
	 width="474.5px" height="512px" viewBox="0 0 474.5 512" enable-background="new 0 0 474.5 512" xml:space="preserve">
<g>
	<path fill="#49635F" d="M451.897,86.578L243.649,7.485c-5.22-1.98-11.081-1.981-16.299,0L19.102,86.578
		C11.171,89.591,6,96.675,6,104.529v96.148c0,132.387,87.475,251.475,221.47,301.504c5.147,1.92,10.913,1.92,16.061,0
		C377.523,452.153,465,333.066,465,200.678v-96.148C465,96.675,459.832,89.591,451.897,86.578z M422.5,200.678
		c0,112.545-72.25,216.148-187,262.396c-111.684-45.013-187-146.803-187-262.396v-83.17l187-71.024l187,71.022V200.678z
		 M212.012,266.198l91.338-83.548c8.294-7.591,21.751-7.592,30.052,0c8.299,7.592,8.296,19.899-0.001,27.49l-106.363,97.294
		c-8.298,7.594-21.754,7.588-30.052,0l-59.388-54.325c-8.299-7.591-8.299-19.899,0-27.49c8.299-7.592,21.753-7.593,30.052,0
		L212.012,266.198z"/>
</g>
</svg>
