<?xml version="1.0" encoding="utf-8"?>
<!-- Generator: Adobe Illustrator 16.0.0, SVG Export Plug-In . SVG Version: 6.00 Build 0)  -->
<!DOCTYPE svg PUBLIC "-//W3C//DTD SVG 1.1//EN" "http://www.w3.org/Graphics/SVG/1.1/DTD/svg11.dtd">
<svg version="1.1" id="Capa_1" xmlns="http://www.w3.org/2000/svg" xmlns:xlink="http://www.w3.org/1999/xlink" x="0px" y="0px"
	 width="376px" height="399.875px" viewBox="1 92.875 376 399.875" enable-background="new 1 92.875 376 399.875"
	 xml:space="preserve">
<g>
	<path fill="#49635F" d="M358.667,159.803l-164.24-61.768c-4.116-1.546-8.739-1.547-12.854,0l-164.24,61.768
		C11.078,162.156,7,167.688,7,173.822v75.088c0,103.389,68.989,196.392,174.667,235.462c4.059,1.5,8.606,1.5,12.667,0
		C300.01,445.303,369,352.3,369,248.91v-75.088C369,167.688,364.924,162.156,358.667,159.803z M335.481,248.91
		c0,87.893-56.981,168.803-147.481,204.92C99.918,418.677,40.518,339.184,40.518,248.91v-64.952L188,128.491l147.481,55.465V248.91z
		 M169.476,300.079l72.036-65.248c6.541-5.928,17.153-5.929,23.7,0c6.545,5.929,6.543,15.54-0.001,21.469l-83.885,75.983
		c-6.544,5.93-17.156,5.926-23.701,0l-46.837-42.426c-6.545-5.929-6.545-15.541,0-21.469c6.545-5.929,17.156-5.93,23.701,0
		L169.476,300.079z"/>
</g>
</svg>
