<?xml version="1.0" encoding="utf-8"?>
<!-- Generator: Adobe Illustrator 16.0.0, SVG Export Plug-In . SVG Version: 6.00 Build 0)  -->
<!DOCTYPE svg PUBLIC "-//W3C//DTD SVG 1.1//EN" "http://www.w3.org/Graphics/SVG/1.1/DTD/svg11.dtd">
<svg version="1.1" id="Layer_1" xmlns="http://www.w3.org/2000/svg" xmlns:xlink="http://www.w3.org/1999/xlink" x="0px" y="0px"
	 width="1237.438px" height="1029.883px" viewBox="-83.88 -29.883 1237.438 1029.883"
	 enable-background="new -83.88 -29.883 1237.438 1029.883" xml:space="preserve">
<g>
	<g>
		<path fill="#49635F" d="M212.465,593.123c-78.803,0-142.917,64.104-142.917,142.917c0,78.814,64.116,142.917,142.917,142.917
			s142.917-64.116,142.917-142.917S291.266,593.123,212.465,593.123z M212.465,805.049c-38.045,0-68.994-30.95-68.994-68.995
			c0-38.044,30.949-69.007,68.994-69.007s68.994,30.963,68.994,69.007C281.458,774.099,250.51,805.049,212.465,805.049z"/>
	</g>
</g>
<g>
	<g>
		<path fill="#49635F" d="M850.665,593.123c-78.813,0-142.917,64.104-142.917,142.917c0,78.814,64.117,142.917,142.917,142.917
			c78.803,0,142.917-64.116,142.917-142.917C993.584,657.239,929.48,593.123,850.665,593.123z M850.665,805.049
			c-38.046,0-68.993-30.95-68.993-68.995c0-38.044,30.947-69.007,68.993-69.007s69.008,30.963,69.008,69.007
			C919.673,774.099,888.711,805.049,850.665,805.049z"/>
	</g>
</g>
<g>
	<g>
		<path fill="#49635F" d="M118.829,200.101c-13.836,0-26.515,7.726-32.859,20.032L-17.522,420.958
			c-2.698,5.234-4.102,11.039-4.102,16.929v298.157c0,20.414,16.547,36.96,36.96,36.96h89.94V699.08H52.298V446.855l89.064-172.832
			h281.781v-73.923H118.829z"/>
	</g>
</g>
<g>
	<g>
		<rect x="322.116" y="699.08" fill="#49635F" width="421.36" height="73.924"/>
	</g>
</g>
<g>
	<g>
		<path fill="#49635F" d="M1082.293,16.524H423.146c-20.416,0-36.96,16.547-36.96,36.96v682.554h73.923V90.447h585.223v608.631
			h-88.707v73.924h125.668c20.415,0,36.959-16.548,36.959-36.962V53.486C1119.252,33.071,1102.706,16.524,1082.293,16.524z"/>
	</g>
</g>
<g>
	<g>
		<rect x="15.336" y="402.156" fill="#49635F" width="407.808" height="73.922"/>
	</g>
</g>
<g>
	<g>
		<path fill="#49635F" d="M933.731,242.077c-13.566-15.277-36.937-16.646-52.177-3.08L698.323,401.75l-72.691-73.626
			c-14.341-14.526-37.749-14.674-52.265-0.332c-14.526,14.34-14.673,37.749-0.331,52.275l97.319,98.563
			c7.209,7.307,16.757,11.003,26.316,11.003c8.748,0,17.507-3.094,24.517-9.328l209.45-186.052
			C945.904,280.702,947.284,257.34,933.731,242.077z"/>
	</g>
</g>
</svg>
