<?xml version="1.0" encoding="utf-8"?>
<!-- Generator: Adobe Illustrator 16.0.0, SVG Export Plug-In . SVG Version: 6.00 Build 0)  -->
<!DOCTYPE svg PUBLIC "-//W3C//DTD SVG 1.1//EN" "http://www.w3.org/Graphics/SVG/1.1/DTD/svg11.dtd">
<svg version="1.1" id="Layer_1" xmlns="http://www.w3.org/2000/svg" xmlns:xlink="http://www.w3.org/1999/xlink" x="0px" y="0px"
	 width="594px" height="593px" viewBox="-45.5 -33.5 594 593" enable-background="new -45.5 -33.5 594 593" xml:space="preserve">
<path fill="#49635F" d="M379.532,169.993c8.868,8.873,8.868,23.256,0,32.125l-152.296,152.39c-8.867,8.868-23.238,8.868-32.106,0
	l-72.5-72.546c-8.868-8.869-8.868-23.252,0-32.12c8.864-8.874,23.238-8.874,32.102,0l56.448,56.481l136.248-136.33
	C356.296,161.125,370.67,161.125,379.532,169.993z M541.664,262.25C541.664,422.961,411.68,553,251.082,553
	C90.463,553-39.5,422.939-39.5,262.25C-39.5,101.539,90.486-28.5,251.082-28.5C411.7-28.5,541.664,101.56,541.664,262.25z
	 M496.26,262.25c0-135.602-109.675-245.32-245.178-245.32C115.559,16.93,5.904,126.667,5.904,262.25
	c0,135.602,109.673,245.32,245.178,245.32C386.604,507.57,496.26,397.834,496.26,262.25z"/>
</svg>
