<?xml version="1.0" encoding="utf-8"?>
<!-- Generator: Adobe Illustrator 16.0.0, SVG Export Plug-In . SVG Version: 6.00 Build 0)  -->
<!DOCTYPE svg PUBLIC "-//W3C//DTD SVG 1.1//EN" "http://www.w3.org/Graphics/SVG/1.1/DTD/svg11.dtd">
<svg version="1.1" id="Layer_1" xmlns="http://www.w3.org/2000/svg" xmlns:xlink="http://www.w3.org/1999/xlink" x="0px" y="0px"
	 width="989.951px" height="967.982px" viewBox="0 -275.018 989.951 967.982" enable-background="new 0 -275.018 989.951 967.982"
	 xml:space="preserve">
<g>
	<g>
		<path fill="#3D5956" d="M831.468-48.023H544.424"/>
	</g>
</g>
<path fill="#3D5956" d="M963.591-105.497c-11.207-56.901-44.047-101.754-85.69-117.076
	c-76.086-28.445-380.425-28.445-380.425-28.445s-304.333,0-380.417,27.362c-40.843,15.312-74.483,61.267-85.692,118.161
	C11.345-1.563,11.345,213.981,11.345,213.981s0,216.628,20.021,319.477c11.215,56.891,44.048,101.753,85.699,117.073
	c76.879,28.451,380.417,28.451,380.417,28.451s304.332,0,380.418-27.364c41.65-15.311,74.482-60.174,85.699-117.065
	c20.021-103.943,20.021-319.478,20.021-319.478S984.42-1.566,963.591-105.497z"/>
<path fill="#FFFFFF" d="M407.099,337.777l251.709-143.562L407.099,50.658V337.777z"/>
</svg>
