<?xml version="1.0" encoding="utf-8"?>
<!-- Generator: Adobe Illustrator 16.0.0, SVG Export Plug-In . SVG Version: 6.00 Build 0)  -->
<!DOCTYPE svg PUBLIC "-//W3C//DTD SVG 1.1//EN" "http://www.w3.org/Graphics/SVG/1.1/DTD/svg11.dtd">
<svg version="1.1" id="Layer_1" xmlns="http://www.w3.org/2000/svg" xmlns:xlink="http://www.w3.org/1999/xlink" x="0px" y="0px"
	 width="989.951px" height="967.982px" viewBox="0 0 989.951 967.982" enable-background="new 0 0 989.951 967.982"
	 xml:space="preserve">
<g>
	<g>
		<path fill="#3D5956" d="M831.468-48.023H544.424"/>
	</g>
</g>
<path fill="#3D5956" d="M960.591,158.53c-11.207-56.901-44.047-101.754-85.689-117.076
	c-76.086-28.445-380.426-28.445-380.426-28.445s-304.333,0-380.417,27.362c-40.843,15.312-74.483,61.267-85.692,118.161
	C8.345,262.464,8.345,478.008,8.345,478.008s0,216.628,20.021,319.478c11.215,56.891,44.048,101.752,85.699,117.072
	c76.879,28.451,380.417,28.451,380.417,28.451s304.332,0,380.418-27.363c41.649-15.312,74.481-60.174,85.698-117.066
	c20.021-103.941,20.021-319.477,20.021-319.477S981.42,262.461,960.591,158.53z"/>
<path fill="#FFFFFF" d="M404.098,598.804l251.709-143.562L404.098,311.685V598.804z"/>
</svg>
