<?xml version="1.0" encoding="utf-8"?>
<!-- Generator: Adobe Illustrator 16.0.0, SVG Export Plug-In . SVG Version: 6.00 Build 0)  -->
<!DOCTYPE svg PUBLIC "-//W3C//DTD SVG 1.1//EN" "http://www.w3.org/Graphics/SVG/1.1/DTD/svg11.dtd">
<svg version="1.1" id="Layer_1" xmlns="http://www.w3.org/2000/svg" xmlns:xlink="http://www.w3.org/1999/xlink" x="0px" y="0px"
	 width="621.5px" height="467.5px" viewBox="-109.5 46.5 621.5 467.5" enable-background="new -109.5 46.5 621.5 467.5"
	 xml:space="preserve">
<path fill="#3D5956" d="M491.364,134.376c-6.984-25.954-27.446-46.412-53.396-53.4c-47.411-12.975-237.051-12.975-237.051-12.975
	s-189.636,0-237.046,12.48c-25.45,6.984-46.412,27.946-53.396,53.895C-102,181.781-102,280.097-102,280.097s0,98.809,12.476,145.72
	c6.989,25.949,27.447,46.412,53.4,53.4c47.904,12.976,237.046,12.976,237.046,12.976s189.635,0,237.046-12.48
	c25.953-6.984,46.411-27.446,53.4-53.396c12.476-47.411,12.476-145.721,12.476-145.721S504.344,181.781,491.364,134.376z"/>
<path fill="#FFFFFF" d="M142.904,363.823l157.696-90.826L142.904,182.17V363.823z"/>
</svg>
