<?xml version="1.0" encoding="utf-8"?>
<!-- Generator: Adobe Illustrator 16.0.0, SVG Export Plug-In . SVG Version: 6.00 Build 0)  -->
<!DOCTYPE svg PUBLIC "-//W3C//DTD SVG 1.1//EN" "http://www.w3.org/Graphics/SVG/1.1/DTD/svg11.dtd">
<svg version="1.1" id="Capa_1" xmlns="http://www.w3.org/2000/svg" xmlns:xlink="http://www.w3.org/1999/xlink" x="0px" y="0px"
	 width="123px" height="147px" viewBox="224.5 633.5 123 147" enable-background="new 224.5 633.5 123 147" xml:space="preserve">
<g>
	<path fill="#365A56" d="M20.393,737.5H8.151c0-20.651-17.322-37.447-38.628-37.447c-21.306,0-38.622,16.802-38.622,37.447h-12.242
		c0-27.408,22.825-49.688,50.87-49.688C-2.432,687.812,20.393,710.092,20.393,737.5z"/>
	<path fill="#365A56" d="M-29.867,685.646c-18.503,0-33.566-15.07-33.566-33.573C-63.44,633.563-48.376,618.5-29.867,618.5
		c18.516,0,33.579,15.057,33.579,33.572S-11.352,685.646-29.867,685.646z M-29.867,630.741c-11.764,0-21.332,9.567-21.332,21.331
		s9.567,21.332,21.332,21.332c11.77,0,21.337-9.568,21.337-21.332S-18.109,630.741-29.867,630.741z"/>
</g>
<g>
	<path fill="#365A56" d="M327.5,669.549h-13.42c-1.75-18.021-14.418-32.049-29.739-32.049s-27.989,14.027-29.739,32.049h-13.42
		c-2.432,0-4.404,2.392-4.404,5.342v94.009c0,2.95,1.972,5.341,4.404,5.341H327.5c2.432,0,4.404-2.391,4.404-5.341v-94.009
		C331.904,671.94,329.932,669.549,327.5,669.549z M284.341,648.184c10.456,0,19.161,9.256,20.844,21.365h-41.688
		C265.18,657.439,273.886,648.184,284.341,648.184z M323.097,763.559h-77.51v-83.326h8.808v16.023c0,2.949,1.972,5.342,4.404,5.342
		c2.433,0,4.404-2.393,4.404-5.342v-16.023h42.277v16.023c0,2.949,1.972,5.342,4.404,5.342c2.432,0,4.404-2.393,4.404-5.342v-16.023
		h8.809V763.559z"/>
</g>
</svg>
