<?xml version="1.0" encoding="utf-8"?>
<!-- Generator: Adobe Illustrator 16.0.0, SVG Export Plug-In . SVG Version: 6.00 Build 0)  -->
<!DOCTYPE svg PUBLIC "-//W3C//DTD SVG 1.1//EN" "http://www.w3.org/Graphics/SVG/1.1/DTD/svg11.dtd">
<svg version="1.1" id="Capa_1" xmlns="http://www.w3.org/2000/svg" xmlns:xlink="http://www.w3.org/1999/xlink" x="0px" y="0px"
	 width="123px" height="124px" viewBox="224.5 633.5 123 124" enable-background="new 224.5 633.5 123 124" xml:space="preserve">
<g>
	<path fill="#365A56" d="M336.393,753.5h-12.242c0-20.651-17.322-37.447-38.628-37.447c-21.306,0-38.622,16.802-38.622,37.447
		h-12.242c0-27.408,22.825-49.688,50.87-49.688C313.568,703.812,336.393,726.092,336.393,753.5z"/>
	<path fill="#365A56" d="M286.133,701.646c-18.503,0-33.566-15.07-33.566-33.573c-0.006-18.509,15.057-33.572,33.566-33.572
		c18.516,0,33.579,15.057,33.579,33.572S304.648,701.646,286.133,701.646z M286.133,646.741c-11.764,0-21.332,9.567-21.332,21.331
		s9.567,21.332,21.332,21.332c11.77,0,21.337-9.568,21.337-21.332S297.891,646.741,286.133,646.741z"/>
</g>
</svg>
