<?xml version="1.0" encoding="utf-8"?>
<!-- Generator: Adobe Illustrator 16.0.0, SVG Export Plug-In . SVG Version: 6.00 Build 0)  -->
<!DOCTYPE svg PUBLIC "-//W3C//DTD SVG 1.1//EN" "http://www.w3.org/Graphics/SVG/1.1/DTD/svg11.dtd">
<svg version="1.1" id="Capa_1" xmlns="http://www.w3.org/2000/svg" xmlns:xlink="http://www.w3.org/1999/xlink" x="0px" y="0px"
	 width="138px" height="131px" viewBox="219.5 630.5 138 131" enable-background="new 219.5 630.5 138 131" xml:space="preserve">
<path fill="#365A56" d="M331.176,655.013c-11.272-11.285-26.262-17.501-42.233-17.508c-32.906,0-59.688,26.782-59.7,59.695
	c-0.005,10.524,2.744,20.793,7.969,29.849l-8.47,30.937l31.648-8.303c8.72,4.757,18.539,7.266,28.529,7.269h0.025
	c32.903,0,59.688-26.785,59.701-59.704C348.652,681.298,342.448,666.299,331.176,655.013z M288.943,746.868h-0.019
	c-8.904-0.003-17.637-2.396-25.256-6.916l-1.811-1.077l-18.781,4.926l5.014-18.311l-1.182-1.876
	c-4.965-7.899-7.59-17.035-7.585-26.408c0.011-27.357,22.271-49.618,49.643-49.618c13.253,0.006,25.711,5.175,35.08,14.551
	c9.368,9.379,14.526,21.849,14.521,35.107C338.554,724.606,316.295,746.868,288.943,746.868z M316.163,709.704
	c-1.493-0.747-8.826-4.356-10.194-4.852c-1.367-0.502-2.362-0.748-3.356,0.744c-0.995,1.492-3.854,4.855-4.724,5.848
	c-0.871,0.997-1.74,1.124-3.23,0.375c-1.494-0.749-6.299-2.322-11.999-7.403c-4.433-3.955-7.427-8.84-8.297-10.333
	c-0.87-1.498-0.007-2.227,0.654-3.044c1.616-2.007,3.233-4.109,3.729-5.104c0.498-0.997,0.248-1.866-0.126-2.612
	c-0.37-0.747-3.354-8.089-4.598-11.078c-1.21-2.91-2.44-2.515-3.356-2.561c-0.869-0.042-1.864-0.051-2.859-0.051
	s-2.611,0.374-3.979,1.865c-1.367,1.494-5.22,5.101-5.22,12.444c0,7.345,5.346,14.438,6.091,15.431
	c0.746,0.996,10.519,16.064,25.483,22.525c3.559,1.538,6.338,2.454,8.505,3.144c3.573,1.136,6.824,0.975,9.396,0.59
	c2.867-0.429,8.825-3.607,10.068-7.093c1.243-3.485,1.243-6.472,0.868-7.095C318.649,710.822,317.653,710.452,316.163,709.704z"/>
</svg>
